<svg width="77" height="75" viewBox="0 0 77 75" fill="none" xmlns="http://www.w3.org/2000/svg">
<path d="M62.5 15.7676V26.3101C62.5 30.2424 59.3028 33.4392 55.3699 33.4392H37.3393C35.5527 33.4392 33.9669 32.5763 32.9733 31.2486C32.2918 30.3379 31.8874 29.2108 31.8874 27.9881C31.8874 25.0842 34.177 22.6993 37.0463 22.5497C37.1991 19.6776 39.5811 17.3915 42.4886 17.3915C45.4948 17.3915 47.9405 19.8368 47.9405 22.8394V29.5164H45.5266V22.8394C45.5266 21.1678 44.1636 19.805 42.4886 19.805C40.8167 19.805 39.4506 21.1678 39.4506 22.8394C39.4506 23.0909 39.4824 23.3393 39.5429 23.5813C39.648 23.992 39.527 24.4251 39.2245 24.7276C38.9251 25.0269 38.492 25.1479 38.0812 25.0428C37.8392 24.9823 37.5908 24.9536 37.3393 24.9536C35.6674 24.9536 34.3012 26.3164 34.3012 27.9881C34.3012 29.6629 35.6674 31.0257 37.3393 31.0257H55.3699C57.9716 31.0257 60.0862 28.9083 60.0862 26.3101V16.9743H46.7335C46.0648 16.9743 45.5266 16.433 45.5266 15.7676V7.12916C45.5266 4.53095 43.4089 2.41354 40.8072 2.41354H31.4734V15.7676C31.4734 16.433 30.932 16.9743 30.2665 16.9743H21.6301C19.0284 16.9743 16.9139 19.0886 16.9139 21.69V31.0257H30.2665C30.5977 31.0257 30.9002 31.1594 31.1199 31.3791C31.3365 31.5988 31.4734 31.8981 31.4734 32.2324V40.8677C31.4734 43.4722 33.5879 45.5865 36.1865 45.5865H45.5266V34.9771H47.9405V46.7932C47.9405 47.4587 47.3991 48 46.7335 48H36.1865C32.2568 48 29.0595 44.8 29.0595 40.8677V33.4392H15.7069C15.0414 33.4392 14.5 32.8979 14.5 32.2324V21.69C14.5 17.7608 17.6972 14.5608 21.6301 14.5608H29.0595V1.20677C29.0595 0.538112 29.5977 0 30.2665 0H40.8072C44.74 0 47.9405 3.19682 47.9405 7.12916V14.5608H61.2931C61.9618 14.5608 62.5 15.0989 62.5 15.7676Z" fill="#9A9BAC"/>
<g clip-path="url(#clip0_20_1379)">
<path d="M9.27983 72H7.70783C7.53183 72 7.38583 71.96 7.26983 71.88C7.15783 71.796 7.07983 71.69 7.03583 71.562L6.51983 70.038H3.19583L2.67983 71.562C2.63983 71.674 2.56183 71.776 2.44583 71.868C2.32983 71.956 2.18783 72 2.01983 72H0.435828L3.81983 63.258H5.89583L9.27983 72ZM3.66383 68.658H6.05183L5.24783 66.264C5.19583 66.112 5.13383 65.934 5.06183 65.73C4.99383 65.522 4.92583 65.298 4.85783 65.058C4.79383 65.302 4.72783 65.528 4.65983 65.736C4.59183 65.944 4.52783 66.124 4.46783 66.276L3.66383 68.658ZM12.7315 65.778V69.726C12.7315 70.034 12.8015 70.272 12.9415 70.44C13.0815 70.608 13.2875 70.692 13.5595 70.692C13.7635 70.692 13.9535 70.65 14.1295 70.566C14.3095 70.482 14.4835 70.364 14.6515 70.212V65.778H16.5115V72H15.3595C15.1275 72 14.9755 71.896 14.9035 71.688L14.7895 71.328C14.6695 71.444 14.5455 71.55 14.4175 71.646C14.2895 71.738 14.1515 71.818 14.0035 71.886C13.8595 71.95 13.7035 72 13.5355 72.036C13.3675 72.076 13.1835 72.096 12.9835 72.096C12.6435 72.096 12.3415 72.038 12.0775 71.922C11.8175 71.802 11.5975 71.636 11.4175 71.424C11.2375 71.212 11.1015 70.962 11.0095 70.674C10.9175 70.386 10.8715 70.07 10.8715 69.726V65.778H12.7315ZM18.9524 72V65.778H20.0564C20.1484 65.778 20.2244 65.786 20.2844 65.802C20.3484 65.818 20.4004 65.844 20.4404 65.88C20.4844 65.912 20.5164 65.956 20.5364 66.012C20.5604 66.068 20.5804 66.136 20.5964 66.216L20.6984 66.798C20.9264 66.446 21.1824 66.168 21.4664 65.964C21.7504 65.76 22.0604 65.658 22.3964 65.658C22.6804 65.658 22.9084 65.726 23.0804 65.862L22.8404 67.23C22.8244 67.314 22.7924 67.374 22.7444 67.41C22.6964 67.442 22.6324 67.458 22.5524 67.458C22.4844 67.458 22.4044 67.45 22.3124 67.434C22.2204 67.414 22.1044 67.404 21.9644 67.404C21.4764 67.404 21.0924 67.664 20.8124 68.184V72H18.9524ZM26.8295 65.778V72H24.9695V65.778H26.8295ZM27.0455 64.074C27.0455 64.222 27.0155 64.362 26.9555 64.494C26.8955 64.622 26.8135 64.736 26.7095 64.836C26.6055 64.932 26.4835 65.01 26.3435 65.07C26.2075 65.126 26.0615 65.154 25.9055 65.154C25.7535 65.154 25.6115 65.126 25.4795 65.07C25.3475 65.01 25.2295 64.932 25.1255 64.836C25.0255 64.736 24.9455 64.622 24.8855 64.494C24.8295 64.362 24.8015 64.222 24.8015 64.074C24.8015 63.922 24.8295 63.78 24.8855 63.648C24.9455 63.516 25.0255 63.4 25.1255 63.3C25.2295 63.2 25.3475 63.122 25.4795 63.066C25.6115 63.01 25.7535 62.982 25.9055 62.982C26.0615 62.982 26.2075 63.01 26.3435 63.066C26.4835 63.122 26.6055 63.2 26.7095 63.3C26.8135 63.4 26.8955 63.516 26.9555 63.648C27.0155 63.78 27.0455 63.922 27.0455 64.074ZM33.1353 67.14C33.0873 67.216 33.0353 67.27 32.9793 67.302C32.9273 67.334 32.8593 67.35 32.7753 67.35C32.6873 67.35 32.5993 67.332 32.5113 67.296C32.4233 67.256 32.3273 67.214 32.2233 67.17C32.1233 67.126 32.0093 67.086 31.8813 67.05C31.7533 67.01 31.6073 66.99 31.4433 66.99C31.2073 66.99 31.0253 67.036 30.8973 67.128C30.7733 67.216 30.7113 67.34 30.7113 67.5C30.7113 67.616 30.7513 67.712 30.8313 67.788C30.9153 67.864 31.0253 67.932 31.1613 67.992C31.2973 68.048 31.4513 68.102 31.6233 68.154C31.7953 68.206 31.9713 68.264 32.1513 68.328C32.3313 68.392 32.5073 68.468 32.6793 68.556C32.8513 68.64 33.0053 68.746 33.1413 68.874C33.2773 68.998 33.3853 69.15 33.4653 69.33C33.5493 69.51 33.5913 69.726 33.5913 69.978C33.5913 70.286 33.5353 70.57 33.4233 70.83C33.3113 71.09 33.1433 71.314 32.9193 71.502C32.6993 71.69 32.4253 71.836 32.0973 71.94C31.7733 72.044 31.3993 72.096 30.9753 72.096C30.7633 72.096 30.5513 72.076 30.3393 72.036C30.1273 71.996 29.9213 71.942 29.7213 71.874C29.5253 71.806 29.3433 71.726 29.1753 71.634C29.0073 71.538 28.8633 71.436 28.7433 71.328L29.1753 70.644C29.2273 70.564 29.2893 70.502 29.3613 70.458C29.4333 70.41 29.5273 70.386 29.6433 70.386C29.7513 70.386 29.8473 70.41 29.9313 70.458C30.0193 70.506 30.1133 70.558 30.2133 70.614C30.3133 70.67 30.4293 70.722 30.5613 70.77C30.6973 70.818 30.8673 70.842 31.0713 70.842C31.2153 70.842 31.3373 70.828 31.4373 70.8C31.5373 70.768 31.6173 70.726 31.6773 70.674C31.7373 70.622 31.7813 70.564 31.8093 70.5C31.8373 70.436 31.8513 70.37 31.8513 70.302C31.8513 70.178 31.8093 70.076 31.7253 69.996C31.6413 69.916 31.5313 69.848 31.3953 69.792C31.2593 69.732 31.1033 69.678 30.9273 69.63C30.7553 69.578 30.5793 69.52 30.3993 69.456C30.2193 69.392 30.0413 69.316 29.8653 69.228C29.6933 69.136 29.5393 69.022 29.4033 68.886C29.2673 68.746 29.1573 68.576 29.0733 68.376C28.9893 68.176 28.9473 67.934 28.9473 67.65C28.9473 67.386 28.9973 67.136 29.0973 66.9C29.2013 66.66 29.3553 66.45 29.5593 66.27C29.7633 66.09 30.0193 65.948 30.3273 65.844C30.6353 65.736 30.9953 65.682 31.4073 65.682C31.6313 65.682 31.8473 65.702 32.0553 65.742C32.2673 65.782 32.4653 65.838 32.6493 65.91C32.8333 65.982 33.0013 66.068 33.1533 66.168C33.3053 66.264 33.4393 66.37 33.5553 66.486L33.1353 67.14ZM43.0528 70.536C43.3328 70.536 43.5808 70.512 43.7968 70.464C44.0128 70.416 44.2168 70.352 44.4088 70.272V68.946H43.5448C43.4168 68.946 43.3168 68.912 43.2448 68.844C43.1728 68.776 43.1368 68.69 43.1368 68.586V67.47H46.2448V71.16C46.0208 71.324 45.7868 71.466 45.5428 71.586C45.3028 71.702 45.0448 71.798 44.7688 71.874C44.4968 71.95 44.2048 72.006 43.8928 72.042C43.5848 72.078 43.2528 72.096 42.8968 72.096C42.2568 72.096 41.6648 71.984 41.1208 71.76C40.5768 71.532 40.1048 71.22 39.7048 70.824C39.3088 70.424 38.9968 69.952 38.7688 69.408C38.5448 68.86 38.4328 68.266 38.4328 67.626C38.4328 66.974 38.5408 66.376 38.7568 65.832C38.9728 65.284 39.2808 64.812 39.6808 64.416C40.0848 64.02 40.5708 63.712 41.1388 63.492C41.7108 63.272 42.3488 63.162 43.0528 63.162C43.4168 63.162 43.7588 63.192 44.0788 63.252C44.3988 63.312 44.6928 63.394 44.9608 63.498C45.2328 63.602 45.4808 63.726 45.7048 63.87C45.9288 64.014 46.1288 64.17 46.3048 64.338L45.7168 65.232C45.6608 65.316 45.5928 65.382 45.5128 65.43C45.4368 65.478 45.3528 65.502 45.2608 65.502C45.1408 65.502 45.0168 65.462 44.8888 65.382C44.7288 65.286 44.5768 65.204 44.4328 65.136C44.2928 65.064 44.1488 65.006 44.0008 64.962C43.8528 64.918 43.6968 64.886 43.5328 64.866C43.3688 64.846 43.1848 64.836 42.9808 64.836C42.6008 64.836 42.2588 64.904 41.9548 65.04C41.6508 65.172 41.3908 65.36 41.1748 65.604C40.9628 65.848 40.7988 66.142 40.6828 66.486C40.5668 66.826 40.5088 67.206 40.5088 67.626C40.5088 68.09 40.5728 68.502 40.7008 68.862C40.8288 69.222 41.0048 69.526 41.2288 69.774C41.4568 70.022 41.7248 70.212 42.0328 70.344C42.3448 70.472 42.6848 70.536 43.0528 70.536ZM48.4798 72V65.778H49.5838C49.6758 65.778 49.7518 65.786 49.8118 65.802C49.8758 65.818 49.9278 65.844 49.9678 65.88C50.0118 65.912 50.0438 65.956 50.0638 66.012C50.0878 66.068 50.1078 66.136 50.1238 66.216L50.2258 66.798C50.4538 66.446 50.7098 66.168 50.9938 65.964C51.2778 65.76 51.5878 65.658 51.9238 65.658C52.2078 65.658 52.4358 65.726 52.6078 65.862L52.3678 67.23C52.3518 67.314 52.3198 67.374 52.2718 67.41C52.2238 67.442 52.1598 67.458 52.0798 67.458C52.0118 67.458 51.9318 67.45 51.8398 67.434C51.7478 67.414 51.6318 67.404 51.4918 67.404C51.0038 67.404 50.6198 67.664 50.3398 68.184V72H48.4798ZM57.2088 65.682C57.6808 65.682 58.1108 65.756 58.4988 65.904C58.8868 66.052 59.2188 66.264 59.4948 66.54C59.7748 66.816 59.9908 67.152 60.1428 67.548C60.2988 67.94 60.3768 68.382 60.3768 68.874C60.3768 69.37 60.2988 69.818 60.1428 70.218C59.9908 70.614 59.7748 70.952 59.4948 71.232C59.2188 71.508 58.8868 71.722 58.4988 71.874C58.1108 72.022 57.6808 72.096 57.2088 72.096C56.7328 72.096 56.2988 72.022 55.9068 71.874C55.5188 71.722 55.1828 71.508 54.8988 71.232C54.6188 70.952 54.4008 70.614 54.2448 70.218C54.0928 69.818 54.0168 69.37 54.0168 68.874C54.0168 68.382 54.0928 67.94 54.2448 67.548C54.4008 67.152 54.6188 66.816 54.8988 66.54C55.1828 66.264 55.5188 66.052 55.9068 65.904C56.2988 65.756 56.7328 65.682 57.2088 65.682ZM57.2088 70.716C57.6368 70.716 57.9508 70.566 58.1508 70.266C58.3548 69.962 58.4568 69.502 58.4568 68.886C58.4568 68.27 58.3548 67.812 58.1508 67.512C57.9508 67.212 57.6368 67.062 57.2088 67.062C56.7688 67.062 56.4468 67.212 56.2428 67.512C56.0388 67.812 55.9368 68.27 55.9368 68.886C55.9368 69.502 56.0388 69.962 56.2428 70.266C56.4468 70.566 56.7688 70.716 57.2088 70.716ZM64.1377 65.778V69.726C64.1377 70.034 64.2077 70.272 64.3477 70.44C64.4877 70.608 64.6937 70.692 64.9657 70.692C65.1697 70.692 65.3597 70.65 65.5357 70.566C65.7157 70.482 65.8897 70.364 66.0577 70.212V65.778H67.9177V72H66.7657C66.5337 72 66.3817 71.896 66.3097 71.688L66.1957 71.328C66.0757 71.444 65.9517 71.55 65.8237 71.646C65.6957 71.738 65.5577 71.818 65.4097 71.886C65.2657 71.95 65.1097 72 64.9417 72.036C64.7737 72.076 64.5897 72.096 64.3897 72.096C64.0497 72.096 63.7477 72.038 63.4837 71.922C63.2237 71.802 63.0037 71.636 62.8237 71.424C62.6437 71.212 62.5077 70.962 62.4157 70.674C62.3237 70.386 62.2777 70.07 62.2777 69.726V65.778H64.1377ZM70.3587 73.974V65.778H71.5107C71.6267 65.778 71.7227 65.804 71.7987 65.856C71.8787 65.908 71.9347 65.986 71.9667 66.09L72.1047 66.546C72.2247 66.414 72.3527 66.294 72.4887 66.186C72.6287 66.078 72.7767 65.986 72.9327 65.91C73.0927 65.83 73.2627 65.768 73.4427 65.724C73.6267 65.68 73.8267 65.658 74.0427 65.658C74.3667 65.658 74.6667 65.73 74.9427 65.874C75.2187 66.018 75.4567 66.226 75.6567 66.498C75.8567 66.77 76.0127 67.104 76.1247 67.5C76.2407 67.892 76.2987 68.338 76.2987 68.838C76.2987 69.306 76.2327 69.738 76.1007 70.134C75.9727 70.53 75.7907 70.874 75.5547 71.166C75.3227 71.458 75.0427 71.686 74.7147 71.85C74.3907 72.014 74.0307 72.096 73.6347 72.096C73.3107 72.096 73.0387 72.05 72.8187 71.958C72.5987 71.866 72.3987 71.742 72.2187 71.586V73.974H70.3587ZM73.3947 67.08C73.2587 67.08 73.1347 67.094 73.0227 67.122C72.9147 67.146 72.8127 67.182 72.7167 67.23C72.6247 67.278 72.5387 67.34 72.4587 67.416C72.3787 67.488 72.2987 67.572 72.2187 67.668V70.308C72.3587 70.464 72.5107 70.574 72.6747 70.638C72.8387 70.698 73.0107 70.728 73.1907 70.728C73.3627 70.728 73.5207 70.694 73.6647 70.626C73.8087 70.558 73.9327 70.45 74.0367 70.302C74.1447 70.15 74.2287 69.954 74.2887 69.714C74.3487 69.474 74.3787 69.182 74.3787 68.838C74.3787 68.51 74.3547 68.234 74.3067 68.01C74.2587 67.786 74.1907 67.606 74.1027 67.47C74.0187 67.33 73.9167 67.23 73.7967 67.17C73.6767 67.11 73.5427 67.08 73.3947 67.08Z" fill="#9A9BAC"/>
</g>
<defs>
<clipPath id="clip0_20_1379">
<rect width="77" height="15" fill="white" transform="translate(0 60)"/>
</clipPath>
</defs>
</svg>
