<svg width="76" height="79" viewBox="0 0 76 79" fill="none" xmlns="http://www.w3.org/2000/svg">
<path d="M62 48H14V0H62V48ZM27.4453 34.8018C25.1262 32.4827 21.3661 32.4828 19.0469 34.8018C16.7277 37.121 16.7277 40.881 19.0469 43.2002C21.3661 45.5194 25.1261 45.5194 27.4453 43.2002C29.7643 40.8809 29.7644 37.1209 27.4453 34.8018ZM46.3291 22.3633C46.3291 27.8673 41.8673 32.33 36.3633 32.3301H31.0186C39.8024 40.7785 50.0416 44.2929 54.167 40.168C58.2918 36.0424 54.778 25.8025 46.3291 17.0186V22.3633ZM44.9814 15.6709C36.1977 7.22201 25.9578 3.70757 21.832 7.83203C17.7067 11.9573 21.2212 22.1964 29.6699 30.9805V25.6367C29.67 20.1327 34.1327 15.6709 39.6367 15.6709H44.9814ZM56.9512 5.65234C54.6319 3.33341 50.8719 3.33322 48.5527 5.65234C46.2336 7.97148 46.2338 11.7315 48.5527 14.0508C50.872 16.37 54.6319 16.37 56.9512 14.0508C59.2704 11.7316 59.2704 7.97157 56.9512 5.65234Z" fill="#9A9BAC"/>
<g clip-path="url(#clip0_20_1378)">
<path d="M1.15778 76V67.216H2.86178L6.34178 72.892V67.216H8.02178V76H6.34178L2.84978 70.384V76H1.15778ZM12.8386 71.668C12.8386 74.068 13.1866 74.5 14.6866 74.5C16.1026 74.5 16.5346 74.032 16.5346 71.668C16.5346 68.932 16.0186 68.704 14.6866 68.704C13.3906 68.704 12.8386 68.872 12.8386 71.668ZM11.1586 71.668C11.1586 67.552 12.6706 67.156 14.6866 67.156C16.7626 67.156 18.2146 67.552 18.2146 71.668C18.2146 75.544 16.8466 76.048 14.6866 76.048C12.5266 76.048 11.1586 75.664 11.1586 71.668ZM20.5955 67.216H22.3835L24.3395 73.792L26.4035 67.216H28.1915L25.2995 76H23.3555L20.5955 67.216ZM30.6179 74.272V69.04C30.6179 67.516 31.6979 67.204 32.5259 67.216C32.5259 67.216 35.6219 67.3 36.3899 67.408V68.8H32.9219C32.2979 68.8 32.2979 69.148 32.2979 69.472V70.84L35.8499 70.96V72.352L32.2979 72.46V73.828C32.2979 74.464 32.6939 74.452 33.0419 74.452H36.3899V75.832C35.7059 75.928 32.6459 76.036 32.6459 76.036C31.8659 76.072 30.6179 75.892 30.6179 74.272ZM39.4625 76V67.216H41.1665L44.6465 72.892V67.216H46.3265V76H44.6465L41.1545 70.384V76H39.4625ZM49.2353 68.764V67.216H55.7273V68.764H53.2913V76H51.6113V68.764H49.2353ZM60.2806 71.188H62.2726C62.8486 71.188 63.1366 71.02 63.1366 69.952C63.1366 68.956 62.8006 68.704 62.2726 68.704H60.2806V71.188ZM58.5886 76V67.216H62.4286C63.8086 67.216 64.8286 67.852 64.8286 69.952C64.8286 72.124 63.9166 72.388 63.4246 72.544L65.0926 76H63.1966L61.7446 72.676L60.2686 72.508V76H58.5886ZM70.5536 72.568H72.5936L71.6096 69.424L70.5536 72.568ZM67.6736 76L70.6376 67.216H72.5456L75.4016 76H73.6136L72.9896 74.056H70.1096L69.4736 76H67.6736Z" fill="#9A9BAC"/>
</g>
<defs>
<clipPath id="clip0_20_1378">
<rect width="76" height="15" fill="white" transform="translate(0 64)"/>
</clipPath>
</defs>
</svg>
