<svg width="59" height="93" viewBox="0 0 59 93" fill="none" xmlns="http://www.w3.org/2000/svg">
<path d="M27.5254 10.5887L27.5242 10.5892L27.5246 10.5887H27.5254Z" fill="#9A9BAC"/>
<path d="M43.4287 7.30184C41.7805 6.98374 40.108 6.81032 38.4355 6.81032C35.2835 6.81032 32.1362 7.37905 29.1479 8.51177L29.1334 8.51651L29.0754 8.54051C28.6659 8.69468 28.2658 8.86335 27.8658 9.04177L27.7548 9.09H27.7501C27.3452 9.27316 26.9452 9.46607 26.5499 9.66823H26.5451L26.4392 9.7262C26.0536 9.92386 25.6728 10.1358 25.2922 10.3527C25.2342 10.3911 25.1765 10.4249 25.1235 10.4589C24.7862 10.6565 24.4583 10.8637 24.1355 11.0758C24.1018 11.0998 24.0438 11.1288 23.9716 11.177C22.5595 12.1216 21.2099 13.2158 19.9665 14.464V14.4687C19.9617 14.4687 19.9617 14.4687 19.9617 14.4687C19.952 14.4782 19.9375 14.4927 19.928 14.5072C19.9762 14.3915 20.0194 14.2758 20.0677 14.1651L20.0724 14.1604L20.0964 14.1024C20.318 13.6059 20.5592 13.1191 20.8193 12.6371C22.3423 9.78867 24.4101 7.28235 26.897 5.25805L26.9017 5.2533L26.9064 5.24855C27.0414 5.1376 27.1908 5.0269 27.3402 4.91121C27.4512 4.8245 27.5524 4.74254 27.6439 4.67032C27.7258 4.61235 27.8173 4.54988 27.9137 4.47741C28.0824 4.35697 28.2463 4.23653 28.4052 4.12558C28.6511 3.95216 28.9018 3.78824 29.1524 3.62906L29.1621 3.62431L29.1911 3.60507C29.4562 3.4364 29.7214 3.27248 29.9912 3.1183L29.996 3.11355C32.8299 1.46033 36.0254 0.380834 39.4378 0.00476074C41.2262 2.23621 42.5516 4.7088 43.4287 7.30184Z" fill="#9A9BAC"/>
<path d="M46.6339 34.6297C46.6676 34.0657 46.6869 33.502 46.6869 32.938C46.6869 29.7908 46.1182 26.6387 44.9854 23.6551L44.9807 23.6406L44.9614 23.5924C44.8168 23.2261 44.6723 22.8598 44.5132 22.5032C44.4362 22.32 44.3492 22.1466 44.277 21.9827C44.2095 21.838 44.1421 21.6791 44.0601 21.5104L44.0554 21.5006L44.0024 21.3947C43.9687 21.3272 43.9349 21.2598 43.9012 21.197L43.882 21.1536C43.882 21.1488 43.8772 21.1488 43.8772 21.1438C43.8725 21.1391 43.8725 21.1341 43.8725 21.1293L43.858 21.1051L43.8485 21.0858L43.8387 21.0666L43.829 21.0474C43.7855 20.9606 43.7423 20.8739 43.694 20.787L43.6893 20.7822L43.6846 20.7677L43.6798 20.763C43.6123 20.6328 43.5449 20.5026 43.4676 20.3727L43.4629 20.3629L43.4582 20.3532L43.4437 20.3242L43.4002 20.2567V20.252C43.3135 20.093 43.2218 19.9291 43.1256 19.7605L43.1208 19.7557L43.1161 19.746L43.1113 19.7365L43.1066 19.7267C42.9861 19.5243 42.8607 19.3122 42.721 19.0953L42.7163 19.0855C42.5911 18.8879 42.4609 18.6855 42.3307 18.4831L42.3162 18.4638L42.3017 18.4446C42.2437 18.3579 42.1715 18.2469 42.0896 18.1265L42.0461 18.0638L42.0413 18.054L42.0268 18.0395L42.0221 18.0348L42.0076 18.0108L41.9978 18.001L41.9931 17.9913L41.9256 17.8998L41.9209 17.8901C41.8149 17.7407 41.7087 17.5912 41.593 17.437V17.4323H41.5883L41.5738 17.4083C41.569 17.4083 41.569 17.4083 41.569 17.4036C41.4726 17.2686 41.3714 17.1384 41.2654 17.0035C41.198 16.9168 41.145 16.8493 41.1113 16.8058C41.0148 16.6757 40.9136 16.5505 40.8077 16.425L40.8029 16.4203L40.7547 16.3625C40.639 16.2179 40.5138 16.0684 40.3789 15.9143L40.3741 15.9095V15.9048C39.95 15.4132 39.5018 14.936 39.0342 14.4637C39.0247 14.4589 39.0197 14.4492 39.0103 14.4397C39.1354 14.4927 39.2706 14.5456 39.3958 14.6036C44.0131 16.6761 47.8546 20.156 50.3849 24.4985L50.3944 24.513C52.0429 27.3421 53.1224 30.5376 53.4984 33.9406C51.2717 35.7287 48.8039 37.0493 46.2111 37.9264C46.2256 37.8397 46.2401 37.7578 46.2496 37.6855C46.2833 37.5071 46.3171 37.329 46.3508 37.1408V37.1263L46.3555 37.1071C46.4422 36.5623 46.5147 36.0131 46.5677 35.4636C46.5822 35.3047 46.5917 35.1552 46.6014 35.0106C46.6099 34.8899 46.6242 34.7647 46.6339 34.6297Z" fill="#9A9BAC"/>
<path d="M39.0671 33.5021C39.0431 33.5551 39.0236 33.608 38.9996 33.6563C38.9611 33.7527 38.9274 33.8347 38.8984 33.9021C36.8259 38.5147 33.3413 42.3609 29.0036 44.8865C26.1697 46.5397 22.9742 47.6192 19.5618 48C17.7736 45.7686 16.4482 43.296 15.5662 40.703C17.2146 41.0211 18.8821 41.1897 20.5546 41.1897C23.7066 41.1897 26.8589 40.6257 29.8469 39.4933C30.2325 39.3438 30.6133 39.1847 30.9892 39.021L31.0711 38.9873H31.0809L31.0906 38.9825C31.293 38.891 31.4907 38.8041 31.6738 38.7174L31.6883 38.7076L31.7028 38.7029L31.7268 38.6884C31.8617 38.6257 31.9919 38.5632 32.1221 38.5005L32.1319 38.4957L32.1464 38.486L32.1561 38.4812L32.1898 38.462L32.2573 38.4283C32.2573 38.4283 32.2573 38.4283 32.2621 38.4283L32.315 38.4043C32.4067 38.3608 32.4887 38.3126 32.5657 38.2741L32.6041 38.2549L32.6234 38.2451L32.6281 38.2404L32.6571 38.2259L32.6908 38.2066H32.7006L32.7054 38.2019H32.7101V38.1971C32.8066 38.1489 32.8933 38.1007 32.98 38.0527C33.0235 38.0334 33.0764 38.0045 33.1391 37.966H33.1439L33.1536 37.9612L33.1874 37.942H33.1921L33.1969 37.9372C33.3415 37.8553 33.491 37.7686 33.6452 37.6819L33.7126 37.6431L33.7174 37.6384C33.7366 37.6286 33.8041 37.5902 33.8763 37.5419C33.992 37.4792 34.1027 37.4117 34.2089 37.349C34.2089 37.349 34.2089 37.349 34.2089 37.3443L34.2861 37.301L34.2959 37.2913H34.3006C34.3391 37.2673 34.4115 37.2238 34.4933 37.1709C34.6619 37.0649 34.8306 36.954 34.9993 36.8433L35.0185 36.8288L35.0378 36.819L35.0475 36.8143C35.2017 36.7083 35.3656 36.5974 35.5343 36.4722L35.544 36.4674L35.5488 36.4627L35.5585 36.4579C35.6982 36.3615 35.8334 36.265 35.9586 36.1688H35.9633C35.9681 36.1641 35.9731 36.1641 35.9778 36.1593C36.2092 35.9907 36.4308 35.822 36.6525 35.6483L36.696 35.6146L36.7105 35.6001C36.8262 35.5086 36.9466 35.4122 37.0623 35.3205L37.0768 35.306H37.0815L37.1298 35.2675L37.1345 35.2628L37.1443 35.253L37.154 35.2433C37.3082 35.1228 37.4529 34.9974 37.5878 34.8817V34.8769C38.0843 34.4529 38.5663 34.0093 39.0336 33.5371L39.0671 33.5021Z" fill="#9A9BAC"/>
<path d="M15.0496 40.6039L15.0475 40.6034L15.0466 40.603L15.0496 40.6039Z" fill="#9A9BAC"/>
<path d="M19.9906 33.5645C19.8942 33.526 19.793 33.4873 19.6965 33.444L19.6918 33.4393L19.6003 33.4008C15.6819 31.6416 12.3272 28.8654 9.8499 25.4096C9.41135 24.7926 8.99204 24.1611 8.61122 23.5057L8.59673 23.4817C6.958 20.6573 5.87826 17.4665 5.50244 14.0639C7.73389 12.2757 10.2065 10.9503 12.7995 10.0732C12.4767 11.7215 12.308 13.3939 12.308 15.0664C12.308 18.2184 12.8767 21.3657 14.0094 24.354C14.6891 26.147 15.576 27.8869 16.6747 29.5256V29.5304C17.6192 30.9475 18.7135 32.2873 19.9619 33.5405C19.9714 33.55 19.9809 33.5597 19.9906 33.5645Z" fill="#9A9BAC"/>
<path d="M27.5381 2.3374C23.5232 5.04114 20.3037 8.83436 18.2987 13.2975C17.5083 15.0519 16.9106 16.9076 16.5202 18.8452C16.1924 20.4984 16.0142 22.2093 16.0142 23.9638V24.0505C15.9613 23.9155 15.8985 23.7853 15.8503 23.6552C14.7995 20.8934 14.2791 17.9823 14.2791 15.0664C14.2791 12.9844 14.5442 10.9069 15.0792 8.88283C15.913 5.70657 17.4118 2.68449 19.5616 0C22.4002 0.318101 25.0847 1.12272 27.5381 2.3374Z" fill="#9A9BAC"/>
<path d="M53.5022 14.0639C53.1841 16.9025 52.3792 19.5873 51.1646 22.0454C48.4511 18.0305 44.6676 14.811 40.2045 12.8059C39.3754 12.4349 38.5223 12.0975 37.6452 11.8132H37.6404C37.5055 11.7649 37.3753 11.7265 37.2451 11.6877H37.2404L37.2356 11.683C37.0959 11.6397 36.956 11.5963 36.8116 11.5578L36.8018 11.553H36.7921L36.7536 11.5435C36.532 11.4761 36.3151 11.4181 36.0982 11.3604C35.8813 11.3027 35.6451 11.2447 35.404 11.1917H35.3992L35.3753 11.1822C35.1439 11.1292 34.9077 11.081 34.6716 11.028H34.6426C34.6426 11.028 34.6426 11.0233 34.6378 11.0233H34.6186V11.0185C34.5174 11.004 34.392 10.9751 34.2425 10.9463L34.1703 10.9318H34.1656L34.1416 10.9271H34.1271L34.1031 10.9223H34.0934L34.0789 10.9176C34.0306 10.9128 33.9872 10.9031 33.9777 10.9031L33.9632 10.8983H33.9534C33.78 10.8646 33.5968 10.8356 33.4039 10.8116L33.3702 10.8069C33.2063 10.7779 33.0376 10.7539 32.8737 10.7347C32.7627 10.7202 32.6713 10.7107 32.6133 10.7057C32.4591 10.6817 32.3 10.6672 32.136 10.6527L32.1313 10.648L32.0591 10.6432H32.0543C31.8712 10.624 31.6832 10.6047 31.4758 10.595L31.4614 10.5902C30.8154 10.542 30.16 10.518 29.4998 10.518H29.4563C29.5865 10.465 29.7117 10.4071 29.8419 10.3541C32.6036 9.30809 35.5242 8.78284 38.4403 8.78284C40.5176 8.78284 42.5949 9.05271 44.6192 9.58296C47.7907 10.4153 50.8175 11.9191 53.5022 14.0639Z" fill="#9A9BAC"/>
<path d="M44.7157 32.9476C44.7157 35.0249 44.4506 37.1022 43.9156 39.1217C43.0817 42.293 41.5829 45.3151 39.4379 47.9995C36.604 47.6814 33.9193 46.8766 31.4612 45.6669C35.4713 42.9534 38.6908 39.1649 40.6958 34.7068V34.702C40.879 34.302 41.0477 33.8922 41.2116 33.4779L41.2163 33.4684C41.2983 33.2612 41.3705 33.0586 41.4427 32.8659V32.8611L41.4475 32.8467V32.8419L41.462 32.8129C41.5102 32.6682 41.5584 32.5333 41.6017 32.3984L41.6064 32.3936L41.6111 32.3744L41.6159 32.3646L41.6304 32.3164C41.6739 32.1862 41.7124 32.0658 41.7461 31.9548L41.7703 31.8826L41.7751 31.8779V31.8681C41.833 31.6947 41.8908 31.5115 41.9437 31.3139L41.9485 31.3044V31.2899C42.016 31.0777 42.0689 30.8706 42.1219 30.6634C42.1316 30.6344 42.1509 30.567 42.1701 30.4803C42.2039 30.3501 42.2376 30.2201 42.2666 30.1042V30.0994C42.2666 30.0994 42.2666 30.0994 42.2666 30.0947L42.2858 30.0127L42.2906 30.008V30.0032C42.3003 29.96 42.3196 29.8828 42.3388 29.7816C42.3823 29.5889 42.4255 29.3913 42.469 29.1936L42.4737 29.1696V29.1504L42.4785 29.1359C42.5122 28.9477 42.5557 28.7456 42.5894 28.5334C42.5894 28.5334 42.5894 28.5334 42.5894 28.5287C42.6232 28.355 42.6474 28.1816 42.6714 28.0227C42.6714 28.0227 42.6714 28.0227 42.6714 28.0179C42.7196 27.7336 42.7534 27.4589 42.7871 27.1793L42.7968 27.1216V27.1024C42.8161 26.9529 42.8306 26.8082 42.8498 26.6541V26.6396L42.8546 26.5674L42.8593 26.5529C42.8785 26.3552 42.893 26.1578 42.9075 25.9746C42.9558 25.3239 42.9797 24.6685 42.9797 24.0033V23.9551C43.0327 24.09 43.0907 24.2202 43.1437 24.3551C44.1904 27.1158 44.7157 30.0317 44.7157 32.9476Z" fill="#9A9BAC"/>
<path d="M29.5432 37.488C29.413 37.5409 29.2781 37.5989 29.1482 37.6519C26.3865 38.6976 23.4706 39.2231 20.5545 39.2231C18.4772 39.2231 16.3999 38.9533 14.3756 38.423C11.2041 37.5844 8.17755 36.0854 5.49756 33.9406C5.81091 31.1017 6.62052 28.4125 7.8352 25.9591C10.5392 29.974 14.3321 33.1935 18.7905 35.1985C20.545 35.9939 22.4006 36.5914 24.3382 36.9769C26.0059 37.3143 27.7313 37.4927 29.5002 37.4927C29.5142 37.4927 29.5287 37.488 29.5432 37.488Z" fill="#9A9BAC"/>
<g clip-path="url(#clip0_20_1377)">
<path d="M4.96601 78H1.14401V76.096H4.96601C6.14201 76.096 6.99601 75.48 6.99601 74.584C6.99601 73.688 6.14201 73.058 4.96601 73.058H4.09801C2.32001 73.058 0.962008 71.826 0.962008 70.09C0.962008 68.382 2.33401 67.08 4.36401 67.08H7.99001V68.984H4.26601C3.46801 68.984 2.96401 69.488 2.96401 70.104C2.96401 70.776 3.49601 71.28 4.26601 71.28H5.34401C7.29001 71.28 8.70401 72.666 8.70401 74.626C8.70401 76.586 7.20601 78 4.96601 78ZM17.9248 67.08H19.8288V69.95C19.8288 72.792 18.5688 74.5 16.3988 74.822V78H14.4948V74.808C12.3248 74.486 11.1068 72.792 11.1068 69.95V67.08H13.0108V69.95C13.0108 72.218 13.6548 72.974 15.2788 72.974H15.6428C17.2668 72.974 17.9248 72.204 17.9248 69.95V67.08ZM29.9608 77.454L24.6128 70.426V78H22.7788V68.032C22.7788 67.458 23.1008 67.08 23.7028 67.08C24.0808 67.08 24.3888 67.206 24.7248 67.64L30.0588 74.654V67.08H31.8788V77.062C31.8788 77.762 31.6408 78.112 31.1648 78.112C30.7028 78.112 30.3948 77.902 29.9608 77.454ZM42.101 68.984H39.315V78H37.411V68.984H34.625V67.08H42.101V68.984ZM49.6 74.444L52.946 78H50.286L47.388 74.934C47.052 74.584 46.87 74.276 46.87 73.954C46.87 73.352 47.248 73.03 48.004 72.974C50.02 72.834 51 72.19 51 70.86C51 69.614 50.216 68.984 48.816 68.984H46.716V78H44.812V67.08H48.858C51.154 67.08 52.974 68.396 52.974 70.818C52.974 72.26 52.162 74.038 49.6 74.444ZM57.9035 78H55.9995V67.08H57.9035V78Z" fill="#9A9BAC"/>
<path d="M9.03873 88.057V91H7.81473V83.98H9.03873V86.833H11.1177V83.98H12.3417V91H11.1177V88.057H9.03873ZM19.6063 89.776V91H16.1233V83.98H19.5523V85.204H17.3473V86.833H19.2463V88.048H17.3473V89.776H19.6063ZM22.6799 91L27.1439 84.295C27.3149 84.034 27.5669 83.926 27.8459 83.926C28.1609 83.926 28.3589 84.169 28.3589 84.538V91H27.1439V86.257L24.1379 91H22.6799ZM35.2029 91H32.0799V83.98H33.2949V89.776H35.2029V91ZM43.1936 85.204H41.4026V91H40.1786V85.204H38.3876V83.98H43.1936V85.204ZM47.8747 88.057V91H46.6507V83.98H47.8747V86.833H49.9537V83.98H51.1777V91H49.9537V88.057H47.8747Z" fill="#9A9BAC"/>
</g>
<defs>
<clipPath id="clip0_20_1377">
<rect width="59" height="29" fill="white" transform="translate(0 64)"/>
</clipPath>
</defs>
</svg>
