<svg width="64" height="64" viewBox="0 0 64 64" fill="none" xmlns="http://www.w3.org/2000/svg">
<g clip-path="url(#clip0_54_35)">
<g clip-path="url(#clip1_54_35)">
<path d="M57.7608 39.8286C49.5577 54.0368 21.8511 53.3745 20.6797 53.3315C20.3698 53.3221 20.0671 53.2361 19.7986 53.0811C19.5301 52.9261 19.3042 52.7069 19.1412 52.4432C18.5182 51.4502 4.09134 27.7868 12.2945 13.5786C14.2245 10.2443 17.3984 7.81177 21.1197 6.81464C24.841 5.81751 28.8059 6.33723 32.1445 8.25977C36.336 10.6797 38.9651 14.6009 39.4937 18.9682C43.5402 17.2423 48.2506 17.5586 52.442 19.9785C55.7763 21.9086 58.2088 25.0824 59.2059 28.8037C60.2031 32.5251 59.6833 36.49 57.7608 39.8286Z" fill="#1DA1AF"/>
</g>
</g>
<defs>
<clipPath id="clip0_54_35">
<rect width="64" height="64" fill="white"/>
</clipPath>
<clipPath id="clip1_54_35">
<rect width="60" height="60" fill="white" transform="translate(21 -9) rotate(30)"/>
</clipPath>
</defs>
</svg>
